<svg xmlns="http://www.w3.org/2000/svg" viewBox="0 0 56.16 56.16"><defs><style>.cls-1{fill:#3c3d36;}</style></defs><g id="レイヤー_2" data-name="レイヤー 2"><g id="書き出し用"><g id="snsのコピー_2" data-name="snsのコピー 2"><g id="_insta" data-name=" insta"><path class="cls-1" d="M28.08,5.06c7.5,0,8.39,0,11.35.16a15.73,15.73,0,0,1,5.21,1,8.73,8.73,0,0,1,3.23,2.1A8.61,8.61,0,0,1,50,11.52a15.52,15.52,0,0,1,1,5.21c.14,3,.16,3.85.16,11.35s0,8.39-.16,11.35a15.46,15.46,0,0,1-1,5.21A9.29,9.29,0,0,1,44.64,50a15.46,15.46,0,0,1-5.21,1c-3,.14-3.85.16-11.35.16s-8.39,0-11.35-.16a15.52,15.52,0,0,1-5.21-1,8.61,8.61,0,0,1-3.23-2.1,8.73,8.73,0,0,1-2.1-3.23,15.73,15.73,0,0,1-1-5.21c-.13-3-.16-3.85-.16-11.35s0-8.38.16-11.35a15.79,15.79,0,0,1,1-5.21,8.73,8.73,0,0,1,2.1-3.23,8.73,8.73,0,0,1,3.23-2.1,15.79,15.79,0,0,1,5.21-1c3-.13,3.85-.16,11.35-.16m0-5.06C20.46,0,19.5,0,16.5.17a20.75,20.75,0,0,0-6.81,1.3,13.8,13.8,0,0,0-5,3.24,13.8,13.8,0,0,0-3.24,5A20.75,20.75,0,0,0,.17,16.5C0,19.5,0,20.46,0,28.08s0,8.58.17,11.58a20.87,20.87,0,0,0,1.3,6.82,14.37,14.37,0,0,0,8.22,8.21A20.49,20.49,0,0,0,16.5,56c3,.14,4,.17,11.58.17s8.58,0,11.58-.17a20.61,20.61,0,0,0,6.82-1.3,14.39,14.39,0,0,0,8.21-8.21A20.61,20.61,0,0,0,56,39.66c.14-3,.17-3.95.17-11.58s0-8.58-.17-11.58a20.49,20.49,0,0,0-1.3-6.81,14.37,14.37,0,0,0-8.21-8.22A20.87,20.87,0,0,0,39.66.17C36.66,0,35.71,0,28.08,0Z"/><path class="cls-1" d="M28.08,13.66A14.42,14.42,0,1,0,42.5,28.08,14.43,14.43,0,0,0,28.08,13.66Zm0,23.78a9.36,9.36,0,1,1,9.36-9.36A9.36,9.36,0,0,1,28.08,37.44Z"/><circle class="cls-1" cx="43.07" cy="13.09" r="3.37"/></g></g></g></g></svg>