<svg xmlns="http://www.w3.org/2000/svg" viewBox="0 0 183.15 42.6"><defs><style>.cls-1{fill:#3c3d36;}</style></defs><g id="レイヤー_2" data-name="レイヤー 2"><g id="書き出し用"><path class="cls-1" d="M18.16,13H12.11V24.77c0,2,.59,2.81,2.76,2.81A14.6,14.6,0,0,0,18.31,27v5.21a12.65,12.65,0,0,1-5.66,1.06c-5.81,0-8.47-2-8.47-7.92V13H0V7.73H4.43L5.22,0h6.89V7.73h6.05Z"/><path class="cls-1" d="M25.4,7.73h7.53L37,22.5h.1L41.94,7.73h5.41L52.22,22.5h.1L56.26,7.73H63.2L55.28,32.45h-6.6L44.15,18.64h-.1L39.48,32.45H33.42Z"/><path class="cls-1" d="M67.58,20.14C67.58,13,73,7,81.41,7s13.78,6,13.78,13.19S89.83,33.27,81.41,33.27,67.58,27.19,67.58,20.14Zm19.34,0c0-5.6-2.26-8-5.51-8s-5.56,2.42-5.56,8,2.26,8,5.56,8S86.92,25.69,86.92,20.14Z"/><path class="cls-1" d="M102.67,28V12.22l0-4.49h7.24V14h.1c1.87-4.88,5.12-7,8.42-7a6.21,6.21,0,0,1,1.08.1v7a8.12,8.12,0,0,0-1.82-.24c-4,0-6.65,4.15-7,8.21V28l.05,4.49h-8Z"/><path class="cls-1" d="M126.4,13.14C128.32,8.69,132.8,7,138.55,7c6.7,0,11.62,2.37,11.62,9.32V27.19a35,35,0,0,0,.44,5.26h-7.33c-.2-1.06-.3-2.07-.39-3h-.1a10.69,10.69,0,0,1-8.71,3.72c-5.52,0-8.91-2.8-8.91-7.1,0-6.81,8.61-9,17.42-9V16c0-2.81-1.48-4.25-4.53-4.25-2.56,0-3.84,1-5.22,3Zm16.19,9.41V20.81c-4.23.05-9.3,1.16-9.3,4.5,0,1.83,1.28,2.94,3.44,2.94A5.72,5.72,0,0,0,142.59,22.55Z"/><path class="cls-1" d="M158.73,36.8a20.22,20.22,0,0,0,2.42.14c3.15,0,4.28-1.11,5.71-5.31l-10-23.9h8.42L171,23h.1l5.32-15.26h6.69L173.06,34c-2.07,5.41-5.61,8.6-11.62,8.6a12.37,12.37,0,0,1-2.71-.29Z"/></g></g></svg>